<svg xmlns="http://www.w3.org/2000/svg" width="60" height="60" viewBox="0 0 60 60">
  <g id="Advertising" transform="translate(4874 4761)">
    <circle id="Icon_BG" data-name="Icon BG" cx="30" cy="30" r="30" transform="translate(-4874 -4761)" fill="#ffeddc"/>
    <path id="Icon_awesome-book-reader" data-name="Icon awesome-book-reader" d="M21.686,5.914a5.914,5.914,0,1,0-5.914,5.914A5.914,5.914,0,0,0,21.686,5.914Zm-7.295,8.939C10.736,12.616,4.815,12,1.836,11.832A1.7,1.7,0,0,0,0,13.5V27.227a1.694,1.694,0,0,0,1.632,1.666c2.69.141,8.132.658,11.893,2.552a.858.858,0,0,0,1.262-.731V15.559a.82.82,0,0,0-.4-.706Zm16.316-3.022a44.771,44.771,0,0,0-7.085.962,18.563,18.563,0,0,0-5.469,2.06.835.835,0,0,0-.395.716V30.712a.86.86,0,0,0,1.265.733c3.76-1.893,9.2-2.409,11.888-2.551a1.7,1.7,0,0,0,1.632-1.667V13.5A1.705,1.705,0,0,0,30.707,11.832Z" transform="translate(-4860.5 -4746.5)" fill="none" stroke="#ffa94f" stroke-width="2"/>
  </g>
</svg>
