<?xml version="1.0"?>
<svg xmlns="http://www.w3.org/2000/svg" xmlns:xlink="http://www.w3.org/1999/xlink" xmlns:svgjs="http://svgjs.com/svgjs" version="1.1" width="512" height="512" x="0" y="0" viewBox="0 0 457.14286 457.14286" style="enable-background:new 0 0 512 512" xml:space="preserve" class=""><g><path xmlns="http://www.w3.org/2000/svg" d="m123.0625 47.269531c.914062.820313 1.917969 1.550781 3.019531 2.007813 1.09375.453125 2.285157.640625 3.472657.640625 2.46875 0 4.753906-.917969 6.488281-2.648438 1.738281-1.742187 2.652343-4.027343 2.652343-6.492187 0-2.375-1.003906-4.757813-2.652343-6.492188-.820313-.820312-1.828125-1.464844-3.015625-1.917968-1.648438-.734376-3.472656-.921876-5.304688-.554688-.546875.097656-1.097656.277344-1.640625.554688-.550781.175781-1.101562.453124-1.648437.820312-.457032.367188-.914063.730469-1.371094 1.097656-.824219.910156-1.464844 1.921875-1.917969 3.019532-.460937 1.097656-.734375 2.285156-.734375 3.472656s.273438 2.375.734375 3.472656c.453125 1.097656 1.09375 2.097656 1.917969 3.019531zm0 0" fill="#ffffff" data-original="#000000" style="" class=""/><path xmlns="http://www.w3.org/2000/svg" d="m162.652344 49.277344c1.09375.453125 2.285156.640625 3.472656.640625s2.375-.1875 3.472656-.640625c1.097656-.457032 2.101563-1.1875 3.019532-2.007813 1.734374-1.742187 2.652343-4.027343 2.652343-6.492187 0-1.1875-.277343-2.375-.734375-3.472656-.453125-1.097657-1.097656-2.109376-1.917968-3.019532-.917969-.820312-1.832032-1.464844-3.019532-1.917968-3.382812-1.464844-7.40625-.554688-9.964844 1.917968-.824218.910156-1.464843 1.921875-1.917968 3.019532-.460938 1.097656-.734375 2.285156-.734375 3.472656 0 2.464844.917969 4.75 2.652343 6.492187.917969.820313 1.921876 1.550781 3.019532 2.007813zm0 0" fill="#ffffff" data-original="#000000" style="" class=""/><path xmlns="http://www.w3.org/2000/svg" d="m199.222656 49.277344c1.09375.453125 2.285156.640625 3.472656.640625s2.375-.1875 3.472657-.640625c1.101562-.457032 2.105469-1.1875 3.019531-2.007813 1.738281-1.742187 2.652344-4.027343 2.652344-6.492187 0-2.375-1.003906-4.757813-2.652344-6.492188-2.5625-2.472656-6.585938-3.382812-9.964844-1.917968-1.097656.453124-2.101562 1.097656-3.015625 1.917968-1.648437 1.734375-2.652343 4.117188-2.652343 6.492188 0 2.464844.914062 4.75 2.652343 6.492187.914063.820313 1.917969 1.550781 3.015625 2.007813zm0 0" fill="#ffffff" data-original="#000000" style="" class=""/><path xmlns="http://www.w3.org/2000/svg" d="m190.410156 407.214844h-48.570312c-5.050782 0-9.144532 4.089844-9.144532 9.140625 0 5.054687 4.09375 9.144531 9.144532 9.144531h48.570312c5.050782 0 9.144532-4.089844 9.144532-9.144531 0-5.050781-4.09375-9.140625-9.144532-9.140625zm0 0" fill="#ffffff" data-original="#000000" style="" class=""/><path xmlns="http://www.w3.org/2000/svg" d="m448 132.035156h-118.402344v-105.703125c0-14.519531-11.523437-26.332031-25.6875-26.332031h-278.3125c-14.117187 0-25.597656 11.8125-25.597656 26.332031v404.480469c0 14.519531 11.480469 26.332031 25.597656 26.332031h278.3125c14.164063 0 25.6875-11.8125 25.6875-26.332031v-105.707031h118.402344c5.050781 0 9.144531-4.085938 9.144531-9.140625v-174.785156c0-5.054688-4.09375-9.144532-9.144531-9.144532zm-21.96875 18.285156-105.761719 106.5-105.585937-106.5zm-400.433594-132.035156h278.3125c4.082032 0 7.402344 3.609375 7.402344 8.046875v36.945313h-293.027344v-36.945313c0-4.4375 3.28125-8.046875 7.3125-8.046875zm278.3125 420.570313h-278.3125c-4.03125 0-7.3125-3.605469-7.3125-8.042969v-36.945312h293.027344v36.945312c0 4.4375-3.320312 8.042969-7.402344 8.042969zm7.402344-63.273438h-293.027344v-294.019531h293.027344v50.472656h-118.566406c-5.050782 0-9.144532 4.089844-9.144532 9.144532v174.785156c0 5.054687 4.09375 9.140625 9.144532 9.140625h118.566406zm-109.425781-68.761719v-143.433593l111.886719 112.855469c1.714843 1.730468 4.046874 2.703124 6.484374 2.703124h.003907c2.4375 0 4.773437-.972656 6.488281-2.695312l112.105469-112.886719v143.457031zm0 0" fill="#ffffff" data-original="#000000" style="" class=""/></g></svg>
