<svg xmlns="http://www.w3.org/2000/svg" width="19.648" height="19.648" viewBox="0 0 19.648 19.648">
  <path id="Icon_awesome-book-reader" data-name="Icon awesome-book-reader" d="M13.508,3.684A3.684,3.684,0,1,0,9.824,7.368,3.684,3.684,0,0,0,13.508,3.684ZM8.964,9.252C6.687,7.858,3,7.475,1.144,7.37A1.062,1.062,0,0,0,0,8.409v8.55A1.055,1.055,0,0,0,1.017,18a20.643,20.643,0,0,1,7.408,1.59.534.534,0,0,0,.786-.456V9.692a.511.511,0,0,0-.246-.44ZM18.5,7.37c-1.855.105-5.544.489-7.82,1.882a.52.52,0,0,0-.246.446V19.13a.536.536,0,0,0,.788.457A20.651,20.651,0,0,1,18.631,18a1.056,1.056,0,0,0,1.017-1.038V8.409A1.062,1.062,0,0,0,18.5,7.37Z" fill="#fff"/>
</svg>
