<svg xmlns="http://www.w3.org/2000/svg" width="60" height="60" viewBox="0 0 60 60">
  <g id="Group_87" data-name="Group 87" transform="translate(5188 4667)">
    <circle id="Icon_BG" data-name="Icon BG" cx="30" cy="30" r="30" transform="translate(-5188 -4667)" fill="#ffeddc"/>
    <g id="users" transform="translate(-5174 -4653)">
      <path id="Path_16" data-name="Path 16" d="M23.5,23.655v-3a6.3,6.3,0,0,0-6-6H6.5c-3.1,0-5,2.9-5,6v3" transform="translate(0 4.845)" fill="none" stroke="#ffa94f" stroke-linecap="round" stroke-linejoin="round" stroke-width="3"/>
      <circle id="Ellipse_7" data-name="Ellipse 7" cx="5.5" cy="5.5" r="5.5" transform="translate(6.5 3.5)" fill="none" stroke="#ffa94f" stroke-linecap="round" stroke-linejoin="round" stroke-width="3"/>
      <path id="Path_17" data-name="Path 17" d="M23.829,23.6v-3a4.951,4.951,0,0,0-4-5" transform="translate(7.671 4.897)" fill="none" stroke="#ffa94f" stroke-linecap="round" stroke-linejoin="round" stroke-width="3"/>
      <path id="Path_18" data-name="Path 18" d="M16.444,3.448a4.935,4.935,0,0,1,4,5c0,2.565-1.516,5.364-4,6" transform="translate(6.056 0.052)" fill="none" stroke="#ffa94f" stroke-linecap="round" stroke-linejoin="round" stroke-width="3"/>
    </g>
  </g>
</svg>
