<svg xmlns="http://www.w3.org/2000/svg" width="19.08" height="24.563" viewBox="0 0 19.08 24.563">
  <g id="host-group-line" transform="translate(-6 -3)">
    <path id="Path_138" data-name="Path 138" d="M17.948,29.207H6.856A.856.856,0,0,1,6,28.415V11.776a.856.856,0,0,1,.856-.856H17.948a.856.856,0,0,1,.856.856V28.415a.856.856,0,0,1-.856.792ZM7.711,27.527h9.381V12.568H7.711Z" transform="translate(0 -1.645)" fill="#fff"/>
    <path id="Path_139" data-name="Path 139" d="M10.08,14.96h6.339v1.585H10.08Z" transform="translate(-0.847 -2.484)" fill="#fff"/>
    <path id="Path_140" data-name="Path 140" d="M23.193,23.489H21.608V8.585H12.1V7H22.4a.792.792,0,0,1,.792.792Z" transform="translate(-1.267 -0.831)" fill="#fff"/>
    <path id="Path_141" data-name="Path 141" d="M27.38,18.847H25.8V4.585H17.08V3h9.508a.792.792,0,0,1,.792.792Z" transform="translate(-2.301 0)" fill="#fff"/>
    <path id="Path_142" data-name="Path 142" d="M13.08,27.88h1.585v1.711H13.08Z" transform="translate(-1.47 -5.167)" fill="#fff"/>
  </g>
</svg>
