<svg xmlns="http://www.w3.org/2000/svg" width="60" height="60" viewBox="0 0 60 60">
  <g id="Host" transform="translate(5017 4613)">
    <circle id="Icon_BG" data-name="Icon BG" cx="30" cy="30" r="30" transform="translate(-5017 -4613)" fill="#ffeddc"/>
    <g id="host-group-line" transform="translate(-5005.102 -4601.579)">
      <path id="Path_138" data-name="Path 138" d="M21.156,34.117H7.085A1.085,1.085,0,0,1,6,33.112V12.005A1.085,1.085,0,0,1,7.085,10.92H21.156a1.085,1.085,0,0,1,1.085,1.085V33.112a1.085,1.085,0,0,1-1.085,1.005ZM8.171,31.986h11.9V13.011H8.171Z" transform="translate(0 0.04)" fill="#ffa94f"/>
      <path id="Path_139" data-name="Path 139" d="M10.08,14.96h8.041v2.01H10.08Z" transform="translate(0.021 0.061)" fill="#ffa94f"/>
      <path id="Path_140" data-name="Path 140" d="M26.171,27.916h-2.01V9.01H12.1V7H25.166a1,1,0,0,1,1.005,1.005Z" transform="translate(0.031 0.02)" fill="#ffa94f"/>
      <path id="Path_141" data-name="Path 141" d="M30.146,23.1h-2.01V5.01H17.08V3H29.141a1,1,0,0,1,1.005,1.005Z" transform="translate(0.056 0)" fill="#ffa94f"/>
      <path id="Path_142" data-name="Path 142" d="M13.08,27.88h2.01v2.171H13.08Z" transform="translate(0.036 0.126)" fill="#ffa94f"/>
    </g>
  </g>
</svg>
