<svg xmlns="http://www.w3.org/2000/svg" width="16" height="16" viewBox="0 0 16 16">
  <path id="Icon_metro-cross" data-name="Icon metro-cross" d="M18.425,14.782h0L13.571,9.928l4.854-4.854h0a.5.5,0,0,0,0-.707L16.132,2.074a.5.5,0,0,0-.707,0h0L10.571,6.928,5.717,2.074h0a.5.5,0,0,0-.707,0L2.717,4.367a.5.5,0,0,0,0,.707h0L7.571,9.928,2.717,14.782h0a.5.5,0,0,0,0,.707L5.01,17.782a.5.5,0,0,0,.707,0h0l4.854-4.854,4.854,4.854h0a.5.5,0,0,0,.707,0l2.293-2.293a.5.5,0,0,0,0-.707Z" transform="translate(-2.571 -1.928)" fill="#e02020"/>
</svg>
