<svg xmlns="http://www.w3.org/2000/svg" width="64" height="64" viewBox="0 0 64 64">
  <path id="Icon_awesome-check-circle" data-name="Icon awesome-check-circle" d="M64.562,32.563a32,32,0,1,1-32-32A32,32,0,0,1,64.562,32.563Zm-35.7,16.944L52.6,25.764a2.065,2.065,0,0,0,0-2.92l-2.92-2.92a2.064,2.064,0,0,0-2.92,0L27.4,39.287l-9.04-9.04a2.065,2.065,0,0,0-2.92,0l-2.92,2.92a2.065,2.065,0,0,0,0,2.92L25.941,49.506A2.065,2.065,0,0,0,28.861,49.506Z" transform="translate(-0.563 -0.563)" fill="#672a7a"/>
</svg>
