<svg xmlns="http://www.w3.org/2000/svg" width="17.794" height="20.8" viewBox="0 0 17.794 20.8">
  <path id="Icon_payment-invoice-sign-alt-o" data-name="Icon payment-invoice-sign-alt-o" d="M28.42,20.778a2.936,2.936,0,0,1,.569.853,2.433,2.433,0,0,1,.2,1.015V36.053a.973.973,0,0,1-.325.772,1.053,1.053,0,0,1-.772.325h-15.6a1.051,1.051,0,0,1-.772-.325.971.971,0,0,1-.325-.772V17.446a.971.971,0,0,1,.325-.772,1.053,1.053,0,0,1,.772-.325h10.4a2.418,2.418,0,0,1,1.015.244,3.058,3.058,0,0,1,.894.528l3.616,3.656Zm-.691,14.869V23.784H22.895a1.051,1.051,0,0,1-.772-.325,1.019,1.019,0,0,1-.325-.812V17.853H12.86V35.647H27.729Zm-11.9-9.994a.392.392,0,0,1,.122-.285.35.35,0,0,1,.244-.122H24.4a.352.352,0,0,1,.244.122.391.391,0,0,1,.122.285v.731q0,.2-.122.244a.353.353,0,0,1-.244.122H16.191a.352.352,0,0,1-.244-.122q-.122-.04-.122-.244v-.731Zm8.572,2.6a.333.333,0,0,1,.244.081.391.391,0,0,1,.122.285v.731a.391.391,0,0,1-.122.285.619.619,0,0,1-.244.081H16.191a.613.613,0,0,1-.244-.081.39.39,0,0,1-.122-.285v-.731a.392.392,0,0,1,.122-.285.331.331,0,0,1,.244-.081Zm0,2.966a.626.626,0,0,1,.244.081.391.391,0,0,1,.122.285v.731a.391.391,0,0,1-.122.285.619.619,0,0,1-.244.081H16.191a.613.613,0,0,1-.244-.081.39.39,0,0,1-.122-.285v-.731a.392.392,0,0,1,.122-.285.62.62,0,0,1,.244-.081ZM23.26,17.934v4.347h4.388a.745.745,0,0,0-.285-.447l-3.616-3.656a1.331,1.331,0,0,0-.488-.244Z" transform="translate(-11.398 -16.35)" fill="#fff"/>
</svg>
