<svg xmlns="http://www.w3.org/2000/svg" width="22.516" height="18.204" viewBox="0 0 22.516 18.204">
  <g id="Group_46" data-name="Group 46" transform="translate(0 0)">
    <path id="Path_18" data-name="Path 18" d="M292.164,2237.513a4.009,4.009,0,0,0-2.483.867,5.029,5.029,0,1,0-.2,6.149,4.02,4.02,0,1,0,2.679-7.016Zm-6.556,7.108a3.3,3.3,0,1,1,3.3-3.3A3.3,3.3,0,0,1,285.609,2244.621Zm6.556-.8a2.26,2.26,0,0,1-1.79-.893,4.915,4.915,0,0,0,.091-2.9,2.279,2.279,0,1,1,1.7,3.792Z" transform="translate(-276.664 -2236.292)" fill="#6d7278"/>
    <path id="Path_19" data-name="Path 19" d="M290.441,2249.869a7.718,7.718,0,0,0-4.762,1.563,10.786,10.786,0,0,0-1.794-.154c-4.5,0-8.283,2.743-8.8,6.38l-.142.991H292.83l-.142-.991a6.132,6.132,0,0,0-.552-1.785h5.321l-.142-.99C296.906,2252.024,293.951,2249.869,290.441,2249.869Zm-13.379,7.044c.891-2.281,3.628-3.9,6.823-3.9s5.931,1.619,6.823,3.9Zm16.566-2.776h-2.685a8.68,8.68,0,0,0-2.979-2.044,6.468,6.468,0,0,1,2.476-.489,5.34,5.34,0,0,1,4.843,2.532Z" transform="translate(-274.941 -2240.444)" fill="#6d7278"/>
  </g>
</svg>
