<svg xmlns="http://www.w3.org/2000/svg" width="22" height="22" viewBox="0 0 22 22">
  <path id="protoio" d="M11,11a1.206,1.206,0,1,1,1.206-1.206A1.206,1.206,0,0,1,11,11Zm2.673-.02A9.676,9.676,0,0,0,11,4.288,9.712,9.712,0,0,0,8.932,14.353a7.822,7.822,0,0,0-1.168,3.315,4.592,4.592,0,0,1,2.1-1.458A9.928,9.928,0,0,0,11,17.653,10.034,10.034,0,0,0,12.137,16.2a4.576,4.576,0,0,1,2.1,1.445,7.775,7.775,0,0,0-1.168-3.314,9.69,9.69,0,0,0,.6-3.382l0,.034ZM11,20.167A9.167,9.167,0,1,1,20.167,11,9.166,9.166,0,0,1,11,20.167ZM11,0A11,11,0,1,0,22,11,11,11,0,0,0,11,0Z" fill="#fff"/>
</svg>
