<svg xmlns="http://www.w3.org/2000/svg" width="19.858" height="17.425" viewBox="0 0 19.858 17.425">
  <g id="Group_39" data-name="Group 39" transform="translate(-666.735 -915.861)">
    <path id="Path_128" data-name="Path 128" d="M676.683,1053.672q4.133,0,8.266,0a3.209,3.209,0,0,1,.768.082,1.145,1.145,0,0,1,.875,1.226,1.192,1.192,0,0,1-.993,1.144,3.392,3.392,0,0,1-.589.058q-8.335,0-16.669,0a1.452,1.452,0,0,1-1.422-.629,1.191,1.191,0,0,1,.685-1.795,3.192,3.192,0,0,1,.813-.088Q672.55,1053.666,676.683,1053.672Z" transform="translate(0 -122.902)"/>
    <path id="Path_129" data-name="Path 129" d="M676.746,915.862q4.156,0,8.313,0a3.394,3.394,0,0,1,.635.05,1.113,1.113,0,0,1,.947,1.067,1.137,1.137,0,0,1-.83,1.257,2.844,2.844,0,0,1-.764.1q-8.335.008-16.671,0a2.761,2.761,0,0,1-.676-.078,1.146,1.146,0,0,1-.908-1.247A1.119,1.119,0,0,1,667.8,915.9a3.569,3.569,0,0,1,.59-.041Q672.567,915.859,676.746,915.862Z" transform="translate(-0.051)"/>
    <path id="Path_130" data-name="Path 130" d="M672.345,987.213c-1.385,0-2.769.008-4.154,0a1.269,1.269,0,0,1-1.4-1.193,1.112,1.112,0,0,1,.865-1.219,3.583,3.583,0,0,1,.813-.087q3.88-.009,7.76,0a4.086,4.086,0,0,1,.681.049,1.163,1.163,0,0,1,1.036,1.1,1.26,1.26,0,0,1-.993,1.3,2.736,2.736,0,0,1-.588.056C675.023,987.215,673.684,987.213,672.345,987.213Z" transform="translate(-0.042 -61.398)"/>
  </g>
</svg>
