<svg xmlns="http://www.w3.org/2000/svg" width="21.843" height="22.239" viewBox="0 0 21.843 22.239">
  <g id="administrator-line" transform="translate(-2 -1.29)">
    <path id="Path_134" data-name="Path 134" d="M12.557,10.564a4.637,4.637,0,1,1,4.637-4.63A4.637,4.637,0,0,1,12.557,10.564Zm0-7.9a3.265,3.265,0,1,0,3.265,3.265A3.265,3.265,0,0,0,12.557,2.669Z" transform="translate(-1.859 0)" fill="#fff"/>
    <path id="Path_135" data-name="Path 135" d="M11.892,27.232a1.468,1.468,0,0,1-.425-1.152H3.372V22.114a10.159,10.159,0,0,1,7.607-3.21h.494a1.509,1.509,0,0,1,.425-1.269l.082-.075c-.322,0-.686-.041-1-.041a11.3,11.3,0,0,0-8.842,3.937A.686.686,0,0,0,2,21.868v4.212a1.372,1.372,0,0,0,1.372,1.372h8.712Z" transform="translate(0 -5.095)" fill="#fff"/>
    <path id="Path_136" data-name="Path 136" d="M26.87,16.288a.254.254,0,0,1,.1,0A.288.288,0,0,0,26.87,16.288Z" transform="translate(-7.81 -4.708)" fill="#fff"/>
    <path id="Path_137" data-name="Path 137" d="M28.046,20.9l-1.372-.418a4.946,4.946,0,0,0-.4-.967l.686-1.276a.261.261,0,0,0-.069-.3l-.995-.995a.247.247,0,0,0-.3-.048l-1.262.686a4.9,4.9,0,0,0-.981-.418l-.418-1.372a.247.247,0,0,0-.247-.165H21.283a.247.247,0,0,0-.24.178l-.418,1.372a4.8,4.8,0,0,0-.988.412l-1.248-.686a.24.24,0,0,0-.295.048l-1.015.988a.261.261,0,0,0-.041.3l.686,1.248a4.644,4.644,0,0,0-.432.981l-1.372.412a.247.247,0,0,0-.178.24v1.406a.24.24,0,0,0,.178.213l1.372.418a4.8,4.8,0,0,0,.412.967l-.686,1.31a.247.247,0,0,0,.041.295l.995.995a.261.261,0,0,0,.3.048l1.283-.686a4.864,4.864,0,0,0,.96.391l.412,1.372a.261.261,0,0,0,.24.178h1.406a.254.254,0,0,0,.24-.178l.418-1.406a4.747,4.747,0,0,0,.947-.391l1.3.686a.247.247,0,0,0,.295-.048l1.043-.933a.24.24,0,0,0,0-.274l-.686-1.29a4.8,4.8,0,0,0,.4-.953l1.372-.418a.247.247,0,0,0,.178-.24V21.145a.247.247,0,0,0-.11-.24Zm-6.057,3.21a2.291,2.291,0,1,1,2.284-2.284,2.291,2.291,0,0,1-2.284,2.284Z" transform="translate(-4.315 -4.503)" fill="#fff"/>
  </g>
</svg>
