<svg xmlns="http://www.w3.org/2000/svg" width="60" height="60" viewBox="0 0 60 60">
  <g id="Voucher" transform="translate(4954 4722)">
    <circle id="Icon_BG" data-name="Icon BG" cx="30" cy="30" r="30" transform="translate(-4954 -4722)" fill="#eeedfc"/>
    <g id="receipt" transform="translate(-4941.197 -4708.979)">
      <path id="Path_143" data-name="Path 143" d="M23.625,18h2.1v2.1h-2.1Z" transform="translate(-1.168 -1.022)" fill="#672a7a"/>
      <path id="Path_144" data-name="Path 144" d="M10.125,18h8.416v2.1H10.125Z" transform="translate(-0.292 -1.022)" fill="#672a7a"/>
      <path id="Path_145" data-name="Path 145" d="M23.625,13.5h2.1v2.1h-2.1Z" transform="translate(-1.168 -0.73)" fill="#672a7a"/>
      <path id="Path_146" data-name="Path 146" d="M10.125,13.5h8.416v2.1H10.125Z" transform="translate(-0.292 -0.73)" fill="#672a7a"/>
      <path id="Path_147" data-name="Path 147" d="M10.125,9H24.853v2.1H10.125Z" transform="translate(-0.292 -0.438)" fill="#672a7a"/>
      <path id="Path_148" data-name="Path 148" d="M26.665,2.25H7.729a2.106,2.106,0,0,0-2.1,2.1v26.3a1.052,1.052,0,0,0,1.052,1.052H7.729a1.051,1.051,0,0,0,.842-.421L10.885,28.2,13.2,31.286a1.088,1.088,0,0,0,1.683,0L17.2,28.2l2.314,3.086a1.088,1.088,0,0,0,1.683,0L23.509,28.2l2.314,3.086a1.052,1.052,0,0,0,.842.421h1.052a1.052,1.052,0,0,0,1.052-1.052V4.354A2.106,2.106,0,0,0,26.665,2.25Zm0,26.651-2.314-3.086a1.088,1.088,0,0,0-1.683,0L20.353,28.9l-2.314-3.086a1.088,1.088,0,0,0-1.683,0L14.041,28.9l-2.314-3.086a1.088,1.088,0,0,0-1.683,0L7.729,28.9V4.354H26.665Z" transform="translate(0 0)" fill="#672a7a"/>
    </g>
  </g>
</svg>
