<?xml version="1.0"?>
<svg xmlns="http://www.w3.org/2000/svg" xmlns:xlink="http://www.w3.org/1999/xlink" xmlns:svgjs="http://svgjs.com/svgjs" version="1.1" width="512" height="512" x="0" y="0" viewBox="0 0 512 512" style="enable-background:new 0 0 512 512" xml:space="preserve" class=""><g><path xmlns="http://www.w3.org/2000/svg" d="m160 32h320v16h-320zm0 0" fill="#ffffff" data-original="#000000" style="" class=""/><path xmlns="http://www.w3.org/2000/svg" d="m32 32h16v16h-16zm0 0" fill="#ffffff" data-original="#000000" style="" class=""/><path xmlns="http://www.w3.org/2000/svg" d="m64 32h16v16h-16zm0 0" fill="#ffffff" data-original="#000000" style="" class=""/><path xmlns="http://www.w3.org/2000/svg" d="m96 32h16v16h-16zm0 0" fill="#ffffff" data-original="#000000" style="" class=""/><path xmlns="http://www.w3.org/2000/svg" d="m190.929688 274.625-18.136719-18.136719 11.3125-11.320312 6.824219 6.832031 16.964843-16.96875 11.3125 11.3125zm0 0" fill="#ffffff" data-original="#000000" style="" class=""/><path xmlns="http://www.w3.org/2000/svg" d="m190.929688 402.96875-18.136719-18.136719 11.3125-11.320312 6.824219 6.832031 16.964843-16.96875 11.3125 11.3125zm0 0" fill="#ffffff" data-original="#000000" style="" class=""/><path xmlns="http://www.w3.org/2000/svg" d="m272 224h96v16h-96zm0 0" fill="#ffffff" data-original="#000000" style="" class=""/><path xmlns="http://www.w3.org/2000/svg" d="m272 264h64v16h-64zm0 0" fill="#ffffff" data-original="#000000" style="" class=""/><path xmlns="http://www.w3.org/2000/svg" d="m272 352h96v16h-96zm0 0" fill="#ffffff" data-original="#000000" style="" class=""/><path xmlns="http://www.w3.org/2000/svg" d="m272 392h64v16h-64zm0 0" fill="#ffffff" data-original="#000000" style="" class=""/><path xmlns="http://www.w3.org/2000/svg" d="m0 0v432h112v56.574219l35.199219 20.707031 27.199219-16 27.203124 16 27.199219-16 27.199219 16 27.199219-16 27.199219 16 27.203124-16 27.199219 16 35.199219-20.707031v-56.574219h112v-432zm384 479.425781-19.199219 11.292969-27.199219-16-27.203124 16-27.199219-16-27.199219 16-27.199219-16-27.199219 16-27.203124-16-27.199219 16-19.199219-11.292969v-351.425781h192v64h64zm-48-303.425781v-36.6875l36.6875 36.6875zm160 240h-96v-235.3125l-68.6875-68.6875h-219.3125v304h-96v-336h480zm0-352h-480v-48h480zm0 0" fill="#ffffff" data-original="#000000" style="" class=""/><path xmlns="http://www.w3.org/2000/svg" d="m196 200c-28.71875 0-52 23.28125-52 52s23.28125 52 52 52 52-23.28125 52-52c-.035156-28.703125-23.296875-51.964844-52-52zm0 88c-19.882812 0-36-16.117188-36-36s16.117188-36 36-36 36 16.117188 36 36c-.023438 19.875-16.125 35.976562-36 36zm0 0" fill="#ffffff" data-original="#000000" style="" class=""/><path xmlns="http://www.w3.org/2000/svg" d="m196 328c-28.71875 0-52 23.28125-52 52s23.28125 52 52 52 52-23.28125 52-52c-.035156-28.703125-23.296875-51.964844-52-52zm0 88c-19.882812 0-36-16.117188-36-36s16.117188-36 36-36 36 16.117188 36 36c-.023438 19.875-16.125 35.976562-36 36zm0 0" fill="#ffffff" data-original="#000000" style="" class=""/></g></svg>
